<?xml version="1.0" encoding="utf-8"?>
<!-- Generator: Adobe Illustrator 19.0.0, SVG Export Plug-In . SVG Version: 6.00 Build 0)  -->
<svg version="1.1" id="sodexs_x5F_logo_x5F_header" xmlns="http://www.w3.org/2000/svg" xmlns:xlink="http://www.w3.org/1999/xlink"
	 x="0px" y="0px" viewBox="160 70.8 569.3 111.2" style="enable-background:new 160 70.8 569.3 111.2;" xml:space="preserve">
<style type="text/css">
	.st0{fill:#FFFFFF;}
</style>
<g>
	<path class="st0" d="M223.5,109.3c-2.7,0-5.1-1.9-5.6-4.6c-1.1-5.6-5.5-14.2-21.7-14.3c-21.9-0.2-20.9,13.3-20.9,14.6
		c-0.3,19.4,59.7,6.3,56.5,42.3c-2,22.6-26.1,25.8-35.5,25.3c-27.9-1.7-34.3-17.6-35.6-26.8c-0.5-3.4,2.2-6.5,5.6-6.5h0.4
		c2.8,0,5.1,2,5.6,4.7c1.2,6.5,6.1,17.4,25.3,17.6c19.9,0.1,22.5-11.1,22.7-14.5c1.5-24.6-56.7-8.8-56.7-42.7
		c0-2.3,1.2-24.9,32.2-24.7c25.4,0.2,32,14.2,33.6,22.9c0.7,3.5-2,6.7-5.5,6.7L223.5,109.3z"/>
	<path class="st0" d="M712.7,109.3c-2.7,0-5.1-1.9-5.6-4.6c-1.1-5.6-5.5-14.2-21.7-14.3c-21.9-0.2-20.9,13.3-20.9,14.6
		c-0.3,19.4,59.7,6.3,56.5,42.3c-2,22.6-26.1,25.8-35.5,25.3c-27.9-1.6-34.3-17.6-35.6-26.7c-0.5-3.4,2.2-6.5,5.6-6.5h0.4
		c2.8,0,5.1,2,5.6,4.7c1.2,6.5,6.1,17.4,25.3,17.6c19.9,0.1,22.5-11.1,22.7-14.5c1.5-24.6-56.7-8.8-56.7-42.7
		c0-2.3,1.2-24.9,32.2-24.7c25.4,0.2,32,14.2,33.6,22.9c0.7,3.5-2,6.7-5.5,6.7L712.7,109.3z"/>
	<path class="st0" d="M288.6,89.1c0,0,32-0.3,30.8,38.6c-0.9,28.4-19.7,35.8-31.3,35.8c-14.5,0-32.6-10.4-31.8-38.6
		C257.2,95.9,277.4,88.7,288.6,89.1z M244.5,124.5c-0.2,23.8,12.1,48.5,44.2,48.6c35.9,0.1,42.9-34.4,42.5-47.5
		c-1.4-47.1-41.5-45.9-41.5-45.9C260.8,78.6,244.6,100.7,244.5,124.5z"/>
	<path class="st0" d="M347.1,86.9c0-3.1,2.5-5.7,5.7-5.7l26.7-0.1c20.2-0.1,42.8,9.8,42.9,45.8c0.1,35.7-22.8,45.5-43.7,45.5h-26
		c-3.1,0-5.7-2.5-5.7-5.7L347.1,86.9z M359,155.1c0,3.1,2.6,5.7,5.7,5.7c2.9,0,7.3,0,13.9-0.1c16.2-0.1,31.5-6.3,30.7-36.9
		c-0.8-29.9-21.7-31.5-29-31.8c-4.4-0.2-11-0.2-15.7-0.1c-3.1,0-5.7,2.6-5.6,5.7V155.1z"/>
	<path class="st0" d="M564.2,90.2l21.6,30.4c1.4,2,1.4,4.6,0,6.6l-25.1,35.2c-2.7,3.8,0,9,4.6,9h0.5c0,0,3.5-0.5,4.6-1.9l20.9-28.8
		c2.3-3.1,6.9-3.1,9.2,0l20.7,28.6c1.1,1.5,4.6,3.1,4.6,3.1h1.1c4.6,0,7.3-5.3,4.6-9l-26.2-36.1c-1.4-2-1.4-4.7,0-6.7l22.6-31.4
		c2.7-3.8,0-9-4.6-9h-1.1c0,0-3.5,1.7-4.6,3.2l-17.2,23.7c-2.3,3.1-6.9,3.1-9.2,0L574,83.3c-1.1-1.5-4.6-2.1-4.6-2.1h-0.5
		C564.2,81.2,561.6,86.4,564.2,90.2z"/>
	<g>
		<path class="st0" d="M490.5,85.9l-13.7,79.8c-0.6,3.5,2.1,6.6,5.6,6.6h1.5c2.8,0,5.1-2,5.6-4.7l13.4-79.8c0.6-3.5-2.1-6.6-5.6-6.6
			h-1.2C493.3,81.2,490.9,83.2,490.5,85.9z"/>
		<path class="st0" d="M525.1,85.9l-13.7,79.8c-0.6,3.5,2.1,6.6,5.6,6.6h1.5c2.8,0,5.1-2,5.6-4.7l13.4-79.8c0.6-3.5-2.1-6.6-5.6-6.6
			h-1.2C528,81.2,525.6,83.2,525.1,85.9z"/>
		<path class="st0" d="M456.9,85.9l-13.7,79.8c-0.6,3.5,2.1,6.6,5.6,6.6h1.5c2.8,0,5.1-2,5.6-4.7l13.4-79.8c0.6-3.5-2.1-6.6-5.6-6.6
			h-1.2C459.7,81.2,457.3,83.2,456.9,85.9z"/>
	</g>
</g>
</svg>
